<svg height="512pt" viewBox="0 0 512 512" width="512pt" xmlns="http://www.w3.org/2000/svg"><path d="m415 199h-12.453125c-35.644531 0-65.898437-25.5-71.941406-60.632812-6.5625-38.175782-26.566407-73.171876-56.328125-98.546876-30.117188-25.679687-68.394532-39.820312-107.777344-39.820312-44.308594 0-86.070312 17.363281-117.605469 48.894531-31.53125 31.53125-48.894531 73.296875-48.894531 117.605469v216.5c0 8.285156 6.714844 15 15 15h16v99c0 8.285156 6.714844 15 15 15h420c8.285156 0 15-6.714844 15-15v-99h16c8.285156 0 15-6.714844 15-15v-87c0-53.484375-43.515625-97-97-97zm36 283h-390v-84h30v29c0 8.285156 6.714844 15 15 15s15-6.714844 15-15v-29h30v29c0 8.285156 6.714844 15 15 15s15-6.714844 15-15v-29h30v29c0 8.285156 6.714844 15 15 15s15-6.714844 15-15v-29h30v29c0 8.285156 6.714844 15 15 15s15-6.714844 15-15v-29h30v29c0 8.285156 6.714844 15 15 15s15-6.714844 15-15v-29h30v29c0 8.285156 6.714844 15 15 15s15-6.714844 15-15v-29h30zm31-114h-452v-201.5c0-75.265625 61.234375-136.5 136.5-136.5 66.65625 0 123.238281 47.714844 134.539062 113.453125 4.140626 24.078125 16.578126 45.898437 35.019532 61.441406 18.445312 15.542969 42.054687 24.105469 66.488281 24.105469h12.453125c36.945312 0 67 30.054688 67 67zm0 0"/></svg>